<svg xmlns="http://www.w3.org/2000/svg" viewBox="0 0 30.47 45.55"><defs><style>.cls-1{fill:#ffcdac;stroke:#000;}.cls-1,.cls-12,.cls-3,.cls-4,.cls-5,.cls-6,.cls-7,.cls-8,.cls-9{stroke-miterlimit:10;}.cls-1,.cls-3,.cls-4,.cls-6{stroke-width:0.09px;}.cls-2{fill:#1a0000;}.cls-12,.cls-3,.cls-4,.cls-5,.cls-6,.cls-7,.cls-8,.cls-9{fill:none;}.cls-3,.cls-5,.cls-7{stroke:#331a1a;}.cls-4,.cls-8,.cls-9{stroke:#332929;}.cls-5{stroke-width:0.14px;}.cls-6{stroke:#2d1212;}.cls-7,.cls-8{stroke-width:0.04px;}.cls-9{stroke-width:0.04px;}.cls-10{fill:#131111;}.cls-11{opacity:0.9;}.cls-12{stroke:#ffffce;stroke-width:0.13px;opacity:0.98;}</style></defs><g id="Livello_2" data-name="Livello 2"><g id="Livello_2-2" data-name="Livello 2"><path class="cls-1" d="M2.54,25.28c.25,6.87,1.9,11,4.21,14.09a42.34,42.34,0,0,0,3,3.38,7.29,7.29,0,0,0,5.42,2.76c1.84,0,2.3-.17,4.64-1.85,2.64-1.9,5.56-6.51,5.56-6.51a37.11,37.11,0,0,0,2.28-10.88c0-1.82,0-5,0-5.52l-.46-4.55A31.7,31.7,0,0,0,22,10C20.82,9,11.06,7.88,6.5,11c-1.32.91-2.31,4.12-3.59,8.7A31.36,31.36,0,0,0,2.54,25.28Z"/><path class="cls-1" d="M27.69,26.27l.38.43A15.9,15.9,0,0,1,28,28.37a10.62,10.62,0,0,0,.09,2.18,1.28,1.28,0,0,1-.37,1.12,1,1,0,0,1-.76.22"/><path class="cls-1" d="M3.16,30.92c-.75.13-.85-.84-1-1.48-.18-1.22.25-1.48.08-2.55s-.72-3.29-.51-4.08c.12-.45.62-.67.86-.87"/></g><g id="Livello_4" data-name="Livello 4"><path class="cls-2" d="M29.12,18.38l.06-.56a14.55,14.55,0,0,1-.48-2.29,3.78,3.78,0,0,0-.17-1.25c.06-.09-.42-2.64-.45-2.76-.18-.61-.32-1.18-.5-1.72a6.35,6.35,0,0,1-1-2,7.24,7.24,0,0,0-1.34-1.4A3.77,3.77,0,0,0,23.3,4.51a7.2,7.2,0,0,0-2.14-1.92c-.58-.34-.29-.85-.9-1-.19-.09-.49-.2-.79-.31A22,22,0,0,1,17.21.8,5.25,5.25,0,0,1,13.53,1a.62.62,0,0,1-.2-.15h-.07l-.13,0a13,13,0,0,0-1.69.42,6.41,6.41,0,0,0-3.92,1.1,5.59,5.59,0,0,0-2.11,2.5,2,2,0,0,1-.59.32.83.83,0,0,1-.36.36A2.65,2.65,0,0,0,4,5.78H4A10.38,10.38,0,0,0,3.16,7c-.19.2-.11,1.32-.28,1.55S2.26,9.8,2.45,10c-.11.4.25.24.18.65a3.66,3.66,0,0,1-.42.68,5.09,5.09,0,0,0-.07,1.56l.14.08c-.17,1.17-.32,2.35-.46,3.52-.07.43-.14.85-.2,1.28,0,.24-.06.48-.1.71.23,2.34-.59,5.21.83,7.19A1.87,1.87,0,0,0,2.54,25c.15-1.25.06-.59.15-1.25.05-.1.34-1.54.35-1.68l0-.42.3-1.92a21.2,21.2,0,0,1,1.06-4.95c.3-.72.69-1.4,1.05-2.08.09-.18.19-.41.29-.65.93-.41,1.84-.88,2.78-1.29.69-.3,1.39-.58,2.09-.84l1.09-.17c1.68-.23,3.38-.39,5.07-.47a17.65,17.65,0,0,1,2.52,0c.41.34.82.68,1.24,1,1.51,1.12,3.08,2.15,4.69,3.12a15.65,15.65,0,0,1,1.28,2.74,18.09,18.09,0,0,1,1,4.94,33.23,33.23,0,0,0,.17,4.56c0,.93.36,2.68.54,1.7.13-.74.29-1.46.45-2.16a11.15,11.15,0,0,1,.37-2.3c0-.66.07-1.33.13-2A7.47,7.47,0,0,1,29.12,18.38Z"/><path class="cls-3" d="M10.17,9a14.35,14.35,0,0,0,6-7.89c0-.13.13-.3,0-.39C15.52.06,15,1.13,15,1.24"/><path class="cls-4" d="M9.73,10.32c0-2.55-.8-5-.93-7.53,0-.48.07-1.33-.34-1.31a1,1,0,0,0-.94.84"/><path class="cls-5" d="M8.55,10.8a24.4,24.4,0,0,1-.17-3A5.88,5.88,0,0,0,6.31,3.4"/><path class="cls-3" d="M7.31,11.27A5,5,0,0,0,7,7.52,2.83,2.83,0,0,0,4,5.84"/><path class="cls-6" d="M5.48,11.27c-.6-1.47-1.71-2.21-2.7-1.8"/><path class="cls-3" d="M20.56,10.34c2.73-.61,4.68-4,4.42-5.07-.11-.28-.51-.14-.6-.08"/><path class="cls-3" d="M14.54,9.47a17.45,17.45,0,0,0,5.39-7.69c.08-.26,0-.81-.57-.58"/><path class="cls-7" d="M9.08,10.38a23.61,23.61,0,0,0,2.54-8.62c0-.42,0-.93-.28-1.15s-.9.28-1.16.77"/><path class="cls-4" d="M19,9a7,7,0,0,0,2.55-4.42c.08-.58.45-1.42,0-1.83-.43-.14-.63.25-.75.29"/><path class="cls-8" d="M6.49,10.94c.21-1.78-.85-4.35-2.62-4.59-.18,0-1.12.42-.71.68"/><path class="cls-4" d="M10.7,9A15,15,0,0,0,15,1.79c.11-.47,1.18-1.17-.18-1.56-.83,0-1.12.72-1,.92"/><path class="cls-4" d="M8.46,9.94C9.7,7.67,9.85,5,10,2.45c.06-.85-.19-1.19-.28-1.24-.31-.16-1,.35-.9.72"/><path class="cls-8" d="M5,12.19A2.61,2.61,0,0,1,2.65,13"/><path class="cls-3" d="M4,14.39A3.36,3.36,0,0,1,1.88,16"/><path class="cls-3" d="M3,18.35c-.49.36-1-.07-1.41-.54"/><path class="cls-3" d="M2.88,21.93a1,1,0,0,1-1.19-1"/><path class="cls-9" d="M2.22,25a1.41,1.41,0,0,1-.7-1.63"/><path class="cls-8" d="M2.3,24.15a1.66,1.66,0,0,1-.76-2l.51.47-.12-.46"/><path class="cls-4" d="M4.64,11.8c.1-.34-.31-.59-.64-.71a3.38,3.38,0,0,0-2.06-.28A2.68,2.68,0,0,0,.41,12.54a6.31,6.31,0,0,0-.32,2.89,1.56,1.56,0,0,0,.75,1.31c.7.29,1.41-.4,1.74-1.08"/><path class="cls-4" d="M4.73,11.46c.09-.26-.28-.46-.58-.55a3.55,3.55,0,0,0-1.87-.21A2.19,2.19,0,0,0,.9,12a4.17,4.17,0,0,0-.29,2.23,1.16,1.16,0,0,0,.68,1c.63.23,1.28-.31,1.57-.83"/><path class="cls-4" d="M27.76,12.17c.76,1,1.47,2.07,2.15,3.15a2.67,2.67,0,0,1,.38.8c.19.89-.53,1.69-1.19,2.31-.34.32-.8.67-1.22.48"/><path class="cls-4" d="M27.31,10.88c.73,1.24,1.42,2.5,2.07,3.81a3.25,3.25,0,0,1,.37,1,3.68,3.68,0,0,1-1.14,2.8c-.33.39-.78.8-1.19.57"/><path class="cls-4" d="M28.74,21.51A4.78,4.78,0,0,1,29,26.33c-.33.63-.82,1.26-.69,1.94a2.47,2.47,0,0,0,.35.78l.87,1.48a5.67,5.67,0,0,1,.91,2.23c.07.79,0,1.83-1.13,1.83s-1.26-.88-.9-1.89"/><path class="cls-3" d="M26.94,17.51a3.39,3.39,0,0,0,1.77,1.56c.11,0,.73.14.7,0"/><path class="cls-3" d="M26,14.77a5.2,5.2,0,0,0,1.27,1.16.87.87,0,0,0,1.28-.23"/><path class="cls-4" d="M2.57,24.9c.3,1.45-.62,2.87-1.19,4.28s-.69,3.14.83,4.14a.92.92,0,0,0,.63.18.59.59,0,0,0,.46-.42,1.42,1.42,0,0,0-.45-1.47l-.37.21"/><path class="cls-4" d="M4.82,6.36a1.19,1.19,0,0,0-1.69,0,1.19,1.19,0,0,0,.19,1.68.52.52,0,0,0,.5.11.27.27,0,0,0,.12-.43"/><path class="cls-4" d="M11.22,5.27a6.91,6.91,0,0,0,1.63-3.51,1.61,1.61,0,0,0-.2-1.23A1.24,1.24,0,0,0,11.29.11c-.56.22-.61.81-.59,1.29"/><path class="cls-4" d="M13.71,4.54a6.67,6.67,0,0,0,2.5-3c.19-.45.3-1-.06-1.36a.78.78,0,0,0-.91,0,2.28,2.28,0,0,0-.74,1.49"/><path class="cls-4" d="M18.22,4.37a8.38,8.38,0,0,0,1-1.85c.22-.66.61-1.69-.05-1.88-.39,0-.63.15-.63.51"/><path class="cls-4" d="M14.16,5.66c.4-.37,3.41-3.92,3.47-4.09C17.88.78,17,.45,17,.44,15.89.13,15.25,1.57,15,2.05"/><path class="cls-4" d="M11.45,5.23a30.5,30.5,0,0,0,2.09-3.91C13.79.54,12.9.21,12.87.2c-1.06-.32-1.21.75-1.46,1.23"/><path class="cls-4" d="M10.14,3.53a3.51,3.51,0,0,1,.28-1.17,1.15,1.15,0,0,0-.16-1.14c-.29-.28-.93-.08-.85.32"/><path class="cls-4" d="M8.15,6.35c-.45-1.26,0-4-1.21-4.1-.63.14-.63.78-.63,1.28"/><path class="cls-8" d="M4.27,5.62l1.12.74"/><path class="cls-4" d="M3,7.82a3.1,3.1,0,0,0-.6.75.51.51,0,0,0-.09.26.41.41,0,0,0,.45.35,1.22,1.22,0,0,0,.58-.26"/><path class="cls-4" d="M2.87,13a1.43,1.43,0,0,1-1.1-.18,1,1,0,0,1-.08-1.24,2.13,2.13,0,0,1,1.11-.73"/><path class="cls-4" d="M2.5,23.66C1.88,23,.84,23.17.84,22.19L1.52,21c.3.19.23.51.58.51"/><path class="cls-4" d="M27.54,21.14a4.37,4.37,0,0,0,0,1.4,2.28,2.28,0,0,0,1.25.71c1.51.41.64-1.11-.07-1.74"/><path class="cls-4" d="M22.82,10.9c1.65.07,3.48-1.6,4-3.18-.22-.31-.66-.11-.78-.12"/><path class="cls-3" d="M23.17,11.92a6,6,0,0,0,2,.25A5.81,5.81,0,0,0,27,11.59c.47-.25.65-1.2.64-1.73"/><path class="cls-8" d="M25.56,14a4,4,0,0,0,1.73-.12,1.45,1.45,0,0,0,1-1.3"/><path class="cls-7" d="M5.27,11.68A2.28,2.28,0,0,1,3,12.16"/><path class="cls-3" d="M19.7,9.31a9.72,9.72,0,0,0,3.13-3.09,2.07,2.07,0,0,0,.32-.71,2.33,2.33,0,0,0-.1-1,.7.7,0,0,0-.21-.42c-.13-.1-.36-.07-.4.09"/><path class="cls-3" d="M26,14.55c.59.42,1.23,1.07,1.92.84.14-.05.7-.41.62-.53"/></g><g id="Livello_3" data-name="Livello 3"><path class="cls-10" d="M12.23,22.81a1.3,1.3,0,0,0-.41-1.23c-.39-.39-3-.68-3.14-.71-2.41-.55-2.7-.24-3.09-.08C5,21,3.8,21.93,4.06,22.45c.11.22,1.28-.66,2.1-.74,1.11-.11,1.32,0,3.81.69A13.17,13.17,0,0,0,12.23,22.81Z"/><path class="cls-10" d="M18.38,22.81a1.32,1.32,0,0,1,.36-1.28,19,19,0,0,1,3.46-1,6,6,0,0,1,2.43-.43c.59.12,2.37,1.42,2.13,1.87-.11.19-1.3-.73-2.13-.78-1.11-.07-1.32.27-3.79.9C19.52,22.4,18.38,22.81,18.38,22.81Z"/></g><g id="Livello_5" data-name="Livello 5" class="cls-11"><path class="cls-12" d="M10,9.86A11.65,11.65,0,0,0,14.54,6s2.71-3,1.66-4.95"/><path class="cls-12" d="M5.77,12.09c-.75.51-2.65.49-3.55.46"/><path class="cls-12" d="M22.47,11.68c1.27,1,4.25,1.31,5.85,1.65"/><path class="cls-12" d="M26.53,16.2a17.39,17.39,0,0,0,2.59,2.18"/><path class="cls-12" d="M4,15.79a3.23,3.23,0,0,1-2.44,1.14"/></g></g></svg>